<?xml version="1.0" encoding="utf-8"?>
<!-- Generator: Adobe Illustrator 24.3.0, SVG Export Plug-In . SVG Version: 6.00 Build 0)  -->
<svg version="1.1" id="Layer_1" xmlns="http://www.w3.org/2000/svg" xmlns:xlink="http://www.w3.org/1999/xlink" x="0px" y="0px"
	 viewBox="0 0 3742.2 1573.3" style="enable-background:new 0 0 3742.2 1573.3;" xml:space="preserve">
<style type="text/css">
	.st0{fill:#B7029F;}
	.st1{font-family:'Gabriola';}
	.st2{font-size:148.0045px;}
</style>
<path class="st0" d="M175.3,29.6c-1,2.8,4,16.2,12.4,32.9c4.1,8.2,7.9,15.4,8.3,16c1.7,2.1,13.7,26.4,16.4,33
	c1.6,3.8,3.4,8.3,4.1,10c2.4,5.6,11.4,33.9,15.3,48c5.9,21,10.8,41.4,12.3,50.5c0.4,3,2,11.1,3.3,18c1.4,6.9,5,29.4,8.1,50
	c9.7,65.3,11.9,78.3,17.6,100c5.5,21,14.7,45.3,21.9,58c3.9,6.9,13.1,21.5,16.2,25.7c2.1,2.9,3.8,5.4,3.8,5.7c0,0.3,1,1.6,2.3,2.9
	c5.7,6,14.7,16.6,14.7,17.4c0,0.4,0.9,1.4,2,2.1s2,1.8,2,2.6c0,0.7,0.9,1.6,2,1.9s2,1.2,2,2s0.9,1.7,2,2s2,1.2,2,2.1
	s0.5,1.6,1.1,1.6c1.1,0,12.8,9.6,21.3,17.4c2.1,2,4,3.6,4.3,3.6c0.2,0,3.9,2.6,8.1,5.8c4.2,3.2,10.3,7.5,13.5,9.6
	c3.1,2.2,5.7,4.3,5.7,4.8c0,0.4,0.5,0.8,1.2,0.8c1.3,0,11.1,6.1,11.6,7.2c0.2,0.5,0.8,0.8,1.4,0.8c0.5,0,4.2,1.9,8.1,4.2
	c4,2.4,9.3,5.4,11.9,6.8c2.7,1.4,5.6,3.3,6.6,4.1c1,0.9,3,1.9,4.5,2.3c1.4,0.3,3.2,1.3,4.1,2.1c0.8,0.8,2,1.5,2.6,1.5
	c0.7,0,2.4,0.8,3.8,1.8c1.5,1,7.9,4.2,14.2,7.2c6.3,2.9,12.2,6,13.1,6.7c0.8,0.7,2.1,1.3,2.7,1.3c1.1,0,24,10.5,43.8,20.1
	c5.6,2.7,10.4,4.9,10.7,4.9c1.8,0,64.2,30.2,72.2,35c1.7,0.9,5.5,3.1,8.5,4.7c10.8,5.9,26.1,14.9,28,16.6c1.1,0.9,2.3,1.7,2.6,1.7
	c0.6,0,21.2,14,24,16.2c0.8,0.7,2.4,2.1,3.5,3c1,1,2.2,1.8,2.5,1.8c1,0,16.6,13.2,22.5,19.1c3.1,3.1,6.3,5.9,7.2,6.2
	c1,0.4,1.7,1.3,1.7,2.2c0,0.8,0.7,1.5,1.5,1.5c0.9,0,1.8,0.7,2.2,1.7c0.4,0.9,2.1,3,3.8,4.7c4,3.9,13.9,17.3,21.5,29
	c2,3.1,9.3,13.9,10.3,15.1c0.4,0.5,3.9,5.3,7.8,10.5c6.2,8.3,31.6,35,33.4,35c0.3,0,3.2,1.7,6.3,3.9c12.1,8.2,23.4,12.9,42.1,17.7
	c27.6,7,68.4,5.4,109.6-4.2c11.8-2.8,15.7-4.6,14.9-6.8c-0.3-0.7-4.1-3.9-8.5-7c-4.3-3.1-7.9-6.1-7.9-6.5c0-0.5-0.9-1.1-2-1.4
	c-1.1-0.3-2-1.2-2-2s-0.9-1.7-2-2s-2-1.2-2-2.1c0-0.9-0.6-1.6-1.2-1.6c-1.5,0-7.8-6.3-7.8-7.7c0-0.6-0.9-1.3-2-1.6s-2-1.2-2-2
	s-0.9-1.7-2-2s-2-1.2-2-2.1c0-0.9-0.7-1.6-1.5-1.6c-0.9,0-1.9-0.8-2.2-1.8c-0.4-0.9-1.2-2.2-1.9-2.7c-2.5-2-11.4-13.8-11.4-15.1
	c0-0.8-0.7-1.4-1.5-1.4s-1.5-0.3-1.5-0.8c0-0.4-2-3.4-4.5-6.7s-4.5-6.5-4.5-7c0-0.6-0.9-1.6-2-2.3s-2-1.9-2-2.7s-0.3-1.5-0.7-1.5
	c-0.5,0-1.9-1.7-3.3-3.8c-1.4-2-4.8-6.9-7.7-10.9s-5.3-7.4-5.3-7.7s-2-3.2-4.4-6.3c-11.8-15.6-16.6-22.5-16.6-23.8
	c0-0.8-0.7-1.5-1.5-1.5c-0.9,0-1.9-0.8-2.2-1.8c-0.4-0.9-1.4-2.4-2.3-3.2c-3-2.7-15-17.8-15-18.8c0-0.5-0.9-1.2-2-1.5s-2-1.2-2-2
	s-0.9-1.7-2-2s-2-1.2-2-2s-0.9-1.7-2-2s-2-1.2-2-2.1s-0.6-1.6-1.2-1.6c-1.1,0-14.5-10.1-15.8-12c-0.3-0.3-1.3-0.9-2.2-1.3
	c-1.4-0.5-1.8-1.8-1.8-6.2V642h5.6c3.6,0,13.5,2,27.3,5.6c62,16,73.2,17.9,107.6,17.9c29.7,0,44.5-2.2,64-9.6c2.8-1,5.4-1.9,5.9-1.9
	c1.6,0,21.6-9.9,27.1-13.5c3.1-1.9,6.2-3.5,7-3.5s1.5-0.4,1.5-0.9c0-0.9,9.6-7.1,11.1-7.1c0.5,0,0.9-0.4,0.9-0.8
	c0-1,18.6-16.2,20-16.2c0.5,0,1-0.7,1-1.5c0-0.9,0.7-1.8,1.5-2.2c2.1-0.7,19.1-17.7,19.8-19.8c0.4-0.8,1.3-1.5,2.2-1.5
	c0.8,0,1.5-0.5,1.5-1.1c0-1.1,12-15.9,16.2-20.2c1-1,1.8-2.2,1.8-2.7c0-0.6,0.7-1,1.5-1s1.5-0.6,1.5-1.3c0-0.8,1.9-3.9,4.3-7
	c13.6-18,22.8-32.4,22.5-35.2c-0.6-4.3-11.6-4.2-51.3,0.6c-11.1,1.4-40.6,0.6-60.5-1.6c-23.4-2.6-51.3-7.5-78.5-14
	c-7.7-1.8-15.6-3.6-17.5-3.9s-5.7-1.3-8.5-2c-7.5-2.2-30.4-6.4-43.8-8.1c-30-3.8-58-0.5-85.8,10.1c-5.2,1.9-10.3,3.8-11.4,4.1
	s-3.2,1.4-4.7,2.5c-1.4,1-3.3,1.8-4.1,1.8c-0.9,0-1.8,0.4-2.2,0.9c-0.3,0.6-3.8,2.8-7.8,5.1c-3.9,2.2-10.6,6.3-14.7,9.1
	c-4.1,2.7-8.3,5.2-9.2,5.5c-1,0.4-1.8,0.9-1.8,1.3c0,0.4-1.4,1.5-3.1,2.5s-7.5,5.4-13,9.7c-5.4,4.3-10.6,7.9-11.4,7.9
	s-1.5,0.7-1.5,1.5c0,0.9-0.7,1.8-1.7,2.2c-0.9,0.4-3,2.1-4.7,3.8c-7.4,7.6-23.6,21.5-25,21.5c-0.9,0-1.6,0.8-1.6,2c0,1.3-0.7,2-2,2
	c-1.1,0-2,0.6-2,1.2c0,1.5-6.3,7.8-7.7,7.8c-0.6,0-1.3,0.9-1.6,2s-1.2,2-2,2s-1.7,0.9-2,2s-1.2,2-2,2s-1.7,0.9-2,2s-1.2,2-2,2
	s-1.7,0.9-2,2s-1.2,2-2,2s-1.7,0.9-2,2.1c-0.3,1.1-1.4,2.3-2.5,2.6s-2.2,1.3-2.5,2.4c-0.3,1-1.2,1.9-2,1.9s-1.7,0.9-2,2
	s-1.2,2-2.1,2c-0.9,0-1.6,0.7-1.6,1.5c0,1.1-1.1,1.5-3.9,1.5h-3.9l-0.7-7.6c-1.1-11.2,0.3-18,8-39.4c2.3-6.5,13.6-28.6,18.6-36.6
	c5.4-8.6,21-31.7,21.8-32.4c0.3-0.3,1.9-2.3,3.4-4.6c1.5-2.2,3.6-5,4.7-6.2c1.1-1.2,2-2.6,2-3.1c0-0.6,0.9-1.6,2-2.3
	c1.1-0.7,2-1.6,2-2.1c0-0.9,20.5-28.5,22.9-30.7c0.9-0.9,2.3-2.8,3.1-4.3c0.8-1.4,5.4-8.4,10.1-15.4c12.4-18.6,12-18,16.7-26.2
	c11.7-20.8,18.3-37.1,24.1-59.4c7.4-28.7,7.3-62.8-0.4-95.8c-6.5-27.6-18.7-57.6-36.3-89.4c-2.2-3.9-4.8-8.5-5.8-10.4
	s-2.2-4-2.7-4.5c-2.3-3.3-5.7-8.8-8.3-13.6c-1.6-3-3.2-5.7-3.6-6c-0.3-0.3-2.3-3-4.4-6c-13.5-19.8-16.9-22.5-18.6-15
	c-3.1,13.7-8.8,32.2-13,42c-1,2.5-2.4,5.8-3.1,7.5c-3.9,9.6-20.8,41.6-26.9,50.8c-2.1,3.2-3.8,6-3.8,6.3c0,1.2-52.1,79.8-53.2,80.2
	c-0.4,0.2-0.8,0.8-0.8,1.3s-1.7,3.5-3.7,6.6c-2.1,3.2-4.3,6.7-4.9,7.8c-0.6,1.1-4.3,7.3-8.3,13.8c-27.4,45-43.4,87.6-45.7,122.4
	c-0.5,7.7-1,10.3-2,10.3c-0.8,0-1.4,0.8-1.4,1.7c0,1-0.3,2.8-0.6,4.1c-0.5,1.8-0.2,2.4,1.5,2.9c2,0.5,2.1,1.2,2.1,11
	c0,9.4-0.2,10.4-1.7,10.1c-1-0.2-1.9-1.3-2.1-2.6c-0.2-1.2-0.9-2.2-1.7-2.2c-1.8,0-2.5-3.3-2.5-12.8c0-7.5-0.2-8.2-2-8.2s-2-0.7-2-8
	c0-4.4-0.4-8-0.9-8c-1.3,0-1.6-2.1-7.1-52c-10.7-95.4-17.9-130.8-35.8-175.5c-3.4-8.5-16-32.4-21.5-40.8c-3.1-4.8-5.7-9.2-5.7-9.7
	c0-0.6-0.3-1-0.7-1c-0.5,0-3.7-3.9-7.3-8.8c-6.5-8.8-37-40.3-40.2-41.5c-1-0.3-1.8-1.3-1.8-2.2c0-0.8-0.7-1.5-1.5-1.5
	s-3.9-1.9-6.9-4.3c-19.5-15.4-49.1-32-84.6-47.4c-11.2-4.8-38.7-14.5-60-21.1c-9.1-2.8-58.5-14.9-64.2-15.8
	C176.7,27.9,175.9,28,175.3,29.6z M365,352c0,1.3,0.7,2,2,2c1.5,0,2,0.7,2,2.5c0,1.5,0.6,2.5,1.4,2.5c1.5,0,2.6,2.1,2.6,5
	c0,1.1,0.9,2.4,2,3c1,0.6,2.2,2.6,2.6,4.5c0.4,2.1,1.2,3.5,2,3.5s1.8,0.8,2.1,1.7c0.4,1,1.1,2.2,1.5,2.8c0.4,0.5,3.3,4.8,6.4,9.5
	c3.1,4.7,6.4,9.5,7.3,10.6c0.9,1.2,2.3,3.2,3.1,4.4c2.6,3.8,15.2,20.5,15.9,21c0.4,0.3,3.4,3.9,6.6,8c3.3,4.1,6.6,8.1,7.5,9
	c0.8,0.9,2.9,3.2,4.5,5.1c12.3,14,20.2,22.9,23.1,26c1.9,2,3.4,4.1,3.4,4.8c0,0.6,0.7,1.1,1.6,1.1c0.9,0,1.8,0.9,2.1,2s1.2,2,1.9,2
	c0.8,0,1.7,0.7,2,1.5s4.9,5.9,10.3,11.3c5.3,5.4,16.8,17.4,25.6,26.7c33.9,35.8,33.1,35.1,35,33.5c1.3-1,1.5-2.2,0.9-5.4
	c-0.7-3.9-0.6-12.7,0.1-13.4c0.1-0.2,1.9,0,3.9,0.3c2.6,0.5,3.6,1.2,3.6,2.6c0,1.2,0.7,1.9,2,1.9c1.1,0,2,0.7,2,1.4
	c0,0.8,1.1,2.7,2.5,4.2s2.5,3.5,2.5,4.5c0,1.1,0.4,1.9,0.9,1.9s2.4,2.4,4.2,5.2c1.9,2.9,6,8.6,9.2,12.6c4.4,5.6,6.3,7.2,7.9,7
	c2.2-0.3,2.2-0.6,2.4-28.3c0.1-19.4,0.6-31.8,1.8-40.5c2-15.7,4.5-29.2,5.5-30.5c0.5-0.5,1.1-3.5,1.4-6.5c0.4-3.1,1.3-6,2.2-6.6
	c0.9-0.7,1.5-2.7,1.5-5.2c0-5,0.8-7.2,2.6-7.2c1,0,1.4-1.2,1.4-4c0-3.3,0.4-4,1.9-4s2-1,2.5-4.5c0.6-3.6,1.1-4.5,2.7-4.5
	c1,0,1.9-0.7,1.9-1.5s0.7-1.5,1.5-1.5c1.2,0,1.5,1.3,1.5,6s-0.3,6-1.5,6s-1.5,1.7-1.5,9c0,4.9-0.9,15.8-1.9,24.2
	c-4.2,32.8-4.8,65.4-2,113.8c1,19.1,0.5,23.3-2.9,23.8c-1.2,0.2-2.2,1-2.2,1.8c0,2-6.9,1.9-7.6-0.1c-0.4-0.8-1.4-1.5-2.3-1.5
	c-3.5,0-57.1-34.8-57.1-37.1c0-0.5-0.5-0.9-1-0.9c-0.9,0-11.9-8.1-15.6-11.5c-1.7-1.5-9.1-7.7-16-13.4c-3.4-2.7-9.9-8.6-14.5-13
	s-8.9-8.3-9.6-8.5c-0.7-0.3-1.3-1.2-1.3-2.1c0-0.8-0.7-1.5-1.6-1.5c-0.9,0-1.8-0.9-2.1-2s-1.2-2-2-2s-1.7-0.9-2-2s-1-2-1.5-2
	c-0.6,0-2.6-1.7-4.5-3.8c-1.8-2-5.7-6.2-8.6-9.2c-5.1-5.3-14.2-15.9-20.2-23.4c-1.6-2.1-3.7-4.6-4.6-5.5c-4.2-4.4-19.9-26.5-19.9-28
	c0-0.6-0.4-1.1-0.8-1.1c-0.9,0-7.2-9.2-7.2-10.4c0-0.3-0.7-1.4-1.6-2.4c-2.3-2.6-6.4-9.1-6.4-10.3c0-0.5-0.9-1.9-1.9-3.1
	c-3-3.2-19.1-35.6-19.1-38.3c0-1.4-0.4-2.5-0.8-2.5c-1.4,0-3.2-4.8-3.2-8.4c0-2.2-0.7-3.9-1.9-4.7c-1.5-1.1-2-3.2-2.6-10.7l-0.7-9.2
	h2.6C364.3,350,365,350.5,365,352z M849.8,558.6c2.4,0.7,3.1,4.4,0.8,4.4c-0.7,0-1.6,0.9-1.9,2c-0.3,1.2-1.4,2-2.6,2
	s-2.1,0.4-2.1,0.9c0,1.3-5.7,3.1-9.6,3.1c-1.9,0-3.4,0.4-3.4,0.9c0,1.2-5.6,3.1-9.1,3.1c-1.6,0-2.9,0.4-2.9,0.8
	c0,1.1-6.1,3.2-9.3,3.2c-1.5,0-2.7,0.4-2.7,0.9s-1.7,1.5-3.7,2.1c-2.1,0.6-5.1,1.8-6.8,2.5c-1.6,0.7-9.1,3.6-16.5,6.5
	s-15.3,6-17.5,7s-6.1,2.7-8.8,3.9c-2.6,1.2-5.8,2.1-7.1,2.1c-1.4,0-2.6,0.4-2.8,1c-0.1,0.5-2.8,1.9-5.8,3.1s-7.5,2.9-10,3.9
	c-2.5,0.9-7.8,3.2-11.7,5c-7.9,3.6-9.4,6.1-4.8,8.2c2.7,1.2,3.4,3.8,1,3.8c-0.8,0-1.5,0.9-1.5,2c0,1.3-0.7,2-1.9,2
	c-1.1,0-2.2,0.4-2.5,0.9s-3.8,1.7-7.8,2.6c-18,4.4-19.8,7.6-6.9,12.1c3.2,1.1,5.6,2.6,5.9,3.6c0.3,1.3,1.5,1.8,4.3,1.8
	c3.1,0,3.9,0.4,3.9,1.9c0,1.4,1,2,3.9,2.5c2.7,0.4,4,1.2,4.4,2.6c0.3,1.2,1.4,2,2.6,2s2.1,0.6,2.1,1.5c0,1.2-1.3,1.5-6,1.5
	c-4.4,0-6-0.4-6-1.4c0-1.5-4.2-2.6-9.6-2.6c-2.2,0-3.4-0.5-3.4-1.4c0-1.4-4.2-2.6-9.5-2.6c-1.9,0-5.3-0.8-7.7-1.8
	c-2.4-1.1-6-2.2-8.1-2.6s-4.1-1.4-4.4-2.2c-0.3-0.7-1.4-1.4-2.4-1.4c-1.2,0-1.9-0.7-1.9-2c0-1.1-0.7-2-1.5-2s-1.5-0.9-1.5-2
	s0.7-2,1.5-2c0.9,0,1.5-0.9,1.5-2.4c0-1.7,1.5-3.5,5.5-6.5c3-2.2,5.9-4.1,6.5-4.1c0.5,0,1-0.4,1-0.9c0-0.9,22.2-16.1,23.5-16.1
	c0.4,0,1.8-0.9,3.2-2s3.6-2,4.9-2c1.4,0,2.4-0.6,2.4-1.4c0-1.6,2.1-2.6,5.5-2.6c1.4,0,2.5-0.7,2.8-1.9c0.3-1.3,1.7-2.2,4.1-2.6
	c2.1-0.4,3.6-1.3,3.6-2.1s0.7-1.4,1.5-1.4s2.4-0.9,3.5-2s3.4-2.3,5-2.7c1.7-0.3,3-0.9,3-1.4s0.5-0.9,1.1-0.9s3.8-1.3,7.2-2.9
	c11.7-5.5,15.7-7.1,18.1-7.1c1.3,0,2.6-0.5,2.8-1.2c0.2-0.6,2.9-2,5.9-3c11.1-3.9,27.2-8.8,29-8.8c1,0,2-0.4,2.3-0.9
	c0.3-0.4,3.1-1.3,6.3-1.9c10-1.9,10.7-2.1,16.3-3.6S845.7,557.5,849.8,558.6z"/>
<path class="st0" d="M204.9,336.3c-3.2,4.5-18.9,27.8-18.9,28.1c0,0.2-1.9,3.5-4.2,7.2c-16.4,27.1-32.8,69.9-39.7,103.9
	c-8.5,41.7-9.6,79.4-4.1,140.9c1.1,12,2,25.2,2,29.3c0,6.6-0.2,7.5-2,8c-1.1,0.3-2,1-2,1.6c0,4.2-31,24.4-40.8,26.6l-3.7,0.8
	l2.8,1.3c3.8,1.9,10.2-0.3,29.1-9.6c14.5-7.3,20.6-9,20.6-5.9c0,0.8,0.9,1.5,2,1.5c1.3,0,2,0.7,2,2c0,1.1,0.8,2.4,1.8,2.8
	c0.9,0.4,1.9,1.4,2.1,2.2c1.1,4.3,1.2,17.6,0.2,23.3c-1.9,11-11,37.1-18.6,53.2c-1.5,3.3-6.1,13.4-11,24
	c-6.8,15.2-8.9,29.9-5.2,38.1c1.6,3.6,2.4,4.1,8,5.7c14.6,4.2,17.6,4.7,28.5,4.7c9.3,0,11.2,0.3,11.2,1.5c0,1.1,1.1,1.5,4,1.5
	c4,0,4,0,4,3.9c0,2.2,0.6,4.4,1.5,5.1c2,1.6,1.9,3.2-0.5,13.2c-3.3,13.6-2.2,23.1,2.5,23.4c6.3,0.3,7.5,0.5,8.9,2
	c0.9,0.8,3.2,1.8,5.1,2.1c3.3,0.5,3.5,0.8,3.5,4.4c0,3.2,0.3,3.9,2,3.9c2.4,0,2.4,0.1,0,7c-2.4,6.7-2.5,10.6-0.5,15.4
	c1.2,2.8,2.1,3.6,4.1,3.6c1.4,0,4,0.6,5.7,1.4c1.8,0.8,5.6,2.2,8.5,3.2c2.8,1,5.2,2.2,5.2,2.6c0,0.4,0.8,0.8,1.9,0.8
	c1,0,2.1,0.9,2.4,2c0.3,1.1,1.2,2,2,2c0.9,0,1.7,1.4,2.2,3.7c0.4,2.1,1.2,4.4,1.8,5.2c0.7,0.8,1.4,7.9,1.8,17.6
	c0.6,13.6,1.1,17.1,3.1,22c1.2,3.2,3,6.2,3.8,6.6c7.6,4,21,9.2,25.9,10.1c5.3,1,7.2,0.9,15.3-1.1c7.6-1.9,24.7-9,26.8-11.1
	c1.4-1.4,18.9-12,19.9-12c0.6,0,1.1-0.4,1.1-0.9s3.5-3.5,7.8-6.5c4.2-3.1,9.1-6.7,10.7-8.1c7.3-6.3,37.8-28.6,46-33.7
	c16.8-10.5,33.5-17.9,50.5-22.7c11.7-3.2,31.1-5.4,41.5-4.7c10.5,0.8,21.4,2.9,25.6,5c1.6,0.8,4.3,1.7,6,2.1
	c1.7,0.4,3.3,1.3,3.6,2.1s1.2,1.4,2.1,1.4c4.9,0,17,11.7,21.1,20.4c1.6,3.4,5.1,10.8,7.9,16.6c8.2,17.3,13.1,33.7,15.2,50.5
	c1.4,11.6,1.5,35.5,0,46.9c-4.3,34.4-18.7,68.3-44,103.6c-5.6,7.8,10.2-8.9,23.6-25c11.3-13.6,39.9-42.1,42.9-42.8
	c0.8-0.2,1.7-1.2,2-2.3c0.4-1,1.5-1.9,2.6-1.9c1.2,0,1.9-0.7,1.9-2s0.7-2,2-2s2-0.7,2-2s0.7-2,2-2c1.2,0,2-0.7,2-1.7
	c0-0.9,2.6-4.4,5.8-7.7c4.8-5.1,11.4-12.6,17.4-19.6c2.1-2.3,9-12,13.3-18.5c2.2-3.3,4.2-6.2,4.5-6.5c0.8-0.8,3-4.8,7.6-14
	c9.4-18.7,13.4-34.7,13.4-54.2c0-21.1-6.1-50.3-12.6-60.6c-1.9-2.9-3.4-5.7-3.4-6.2c0-0.6-0.7-1.8-1.6-2.8c-0.8-0.9-3.7-4.6-6.5-8.2
	c-2.7-3.6-6.6-8.5-8.6-11c-5.1-6.3-37.6-38.5-39.6-39.3c-0.9-0.3-1.7-1.3-1.7-2.2c0-0.8-0.7-1.5-1.5-1.5s-2-0.9-2.7-2s-1.6-2-2.1-2
	c-0.4,0-3.8-2.4-7.5-5.2c-3.7-2.9-7.1-5.6-7.7-6.1c-3.9-2.9-14.3-11.1-15.8-12.2c-0.9-0.8-1.9-1.5-2.2-1.5c-0.2,0-3.9-2.6-8.2-5.8
	s-10.4-7.5-13.5-9.5c-3.2-2.1-5.8-4.2-5.8-4.8c0-0.5-0.8-0.9-1.7-0.9s-2.4-0.6-3.2-1.4c-0.9-0.8-8.1-5.7-16.1-10.9
	s-15.3-10.2-16.2-11.1c-1-0.9-2.1-1.6-2.4-1.6c-1.2,0-10.4-6.3-10.4-7.2c0-0.4-0.7-0.8-1.5-0.8c-0.9,0-5.7-2.8-10.8-6.2
	c-9.6-6.5-9.9-6.8-16.6-10.7c-2.3-1.4-4.1-2.8-4.1-3.3c0-0.4-0.5-0.8-1-0.8c-0.6,0-6.3-3.5-12.7-7.8c-6.3-4.2-12.3-8.2-13.1-8.7
	c-0.9-0.6-3.4-2.2-5.6-3.8c-2.3-1.5-7.8-5.3-12.4-8.3c-4.6-3.1-8.9-6.2-9.5-6.8c-0.7-0.6-3.8-2.8-6.9-4.9c-3.2-2-5.8-4.2-5.8-4.7
	c0-0.6-0.5-1-1.2-1c-1.5,0-31.8-23-31.8-24.1c0-0.5-0.5-0.9-1.1-0.9s-2.9-1.8-5-4c-2.2-2.2-4.2-4-4.6-4c-4,0-60.3-56.6-60.3-60.7
	c0-0.4-0.9-1.4-2-2.1c-1.1-0.7-2-1.9-2-2.6c0-0.8-0.4-1.6-0.9-1.8c-1.2-0.4-8.1-9.6-8.1-10.7c0-0.5-0.4-1.1-0.8-1.3
	c-1.4-0.6-7.2-9.6-7.2-11.2c0-0.9-0.4-1.6-0.9-1.6c-1.4,0-7-9.9-22.6-39.5c-15.7-29.8-23.7-62.5-25.1-103c-0.7-19.7,0-25.5,4.3-36
	c2.4-5.8,4.6-16.5,3.4-16.5C206.8,334,205.8,335.1,204.9,336.3z"/>
<path class="st0" d="M268.4,514.5c-0.3,0.8,0.5,3.4,1.9,5.7c2.8,4.9,14.8,21.7,19.8,28.1c5,6.2,50.1,51.2,52.2,52
	c0.9,0.3,1.7,1.3,1.7,2.2c0,0.8,0.7,1.5,1.5,1.5c1.2,0,9.4,6.2,19.6,14.8c2.1,1.8,13.3,10.5,16,12.4c4.7,3.5,23.5,17.2,27.6,20.2
	c4.5,3.4,17.1,12.2,20.9,14.6c1.2,0.8,6.8,4.6,12.4,8.5c5.6,3.8,10.9,7.5,11.8,8c3.3,2,10.7,7,11.2,7.5c0.3,0.3,3,2.1,6,4
	s5.9,4,6.3,4.7c0.4,0.7,1.3,1.3,1.8,1.3c1.3,0,10.3,6,10.7,7.2c0.2,0.4,0.8,0.8,1.3,0.8c1.1,0,21.8,13.6,23.4,15.4
	c0.6,0.6,2.2,1.7,3.5,2.5c3.8,2.1,23,15.4,25.1,17.3c1.1,1,2.2,1.8,2.5,1.8s3.3,2.1,6.6,4.6s6.6,4.8,7.4,5.1
	c0.8,0.3,1.4,1.1,1.4,1.9s0.7,1.4,1.6,1.4c1.3,0,4.1,1.9,11.1,7.5c0.7,0.5,2.3,1.8,3.5,2.7c10.9,8.4,16.8,13.2,16.8,14
	c0,0.4,0.7,0.8,1.5,0.8s2,0.9,2.7,2s1.7,2,2.2,2c1.3,0,16.5,13.8,29.1,26.5c9.8,9.7,20.3,21.5,25.3,28.3c0.9,1.2,2.2,2.8,2.7,3.5
	c5.6,7,7.5,9.8,7.5,11.1c0,0.9,0.4,1.6,0.9,1.6c1.6,0,10.9,16.4,16.9,30c5.3,11.7,9.4,27.9,11,43.3c1.5,13.4,3.5,13.8,10,2.4
	c21.1-36.9,31.4-75.8,28.3-106.8c-1.5-14.9-7.4-37.1-10.9-40.8c-0.7-0.7-1.6-2.6-1.9-4.2c-0.3-1.6-0.9-2.9-1.3-2.9s-2.4-2.8-4.5-6.3
	c-2.2-3.4-5.6-8.5-7.7-11.3c-2.1-2.8-3.8-5.6-3.8-6.2c0-0.7-0.7-1.2-1.5-1.2c-0.9,0-1.8-0.7-2.2-1.6c-0.5-1.4-5.5-6.4-16.2-16.4
	c-0.9-0.9-5-4.2-9.1-7.5s-7.7-6.2-8-6.6c-1.3-1.5-30.3-20.1-41-26.2c-17.1-9.9-44.9-23.6-75.5-37.1c-13.2-5.9-24.9-11.1-26-11.6
	s-6.9-3-13-5.6c-6-2.5-12.3-5.2-14-5.9c-1.6-0.8-6.4-2.8-10.5-4.5c-8.8-3.8-8.2-3.5-31.5-13.5c-33.9-14.6-42.9-18.8-72-33.5
	c-21.5-10.9-30.6-15.7-37.5-20c-0.8-0.5-5.8-3.5-11-6.6s-9.6-6-9.8-6.5s-0.8-0.9-1.4-0.9c-1,0-17.7-11.2-22.9-15.4
	c-1.5-1.2-3.9-3-5.5-4.1c-1.5-1.1-7-5.5-12.2-9.8C271.6,512.9,269.4,511.8,268.4,514.5z"/>
<path class="st0" d="M1252.5,814.6c-23.2,2.6-44.7,9.3-63.7,20c-36.8,20.7-68.6,58-92.8,108.6c-15.9,33.4-19.1,43.5-62.2,193.8
	l-37.2,129.5v12.5c-0.1,10.8,0.2,13.1,2.1,17.2c3.4,7.4,7.1,11.5,12.7,14.3c10.6,5.2,21.6,4.3,36.1-3c11.4-5.6,20.1-12.2,32.2-24.4
	c12.3-12.3,14.4-15.1,13.6-17.9c-0.3-1.3-0.9-2.2-1.3-2s-3.6,3.6-7.1,7.7c-7,8.1-18.2,18.1-26.7,23.7c-16.3,10.9-22.1,7.7-20.8-11.6
	c0.9-14.8,3.7-25.5,30.1-117.5c27.9-97.3,23.8-86.9,40.6-103c22-21.1,44.8-31.5,68.7-31.5c24.7,0.1,39.5,11.4,45.9,35
	c1.3,4.9,1.7,10.4,1.7,22c0,30.6-5.6,55-36,158c-5.6,19-5.7,19.8-5.8,32c-0.1,10.8,0.2,13.3,2.2,18.1c2.7,6.8,7.9,12.4,14.1,15.3
	c6.7,3.1,19.2,2.8,28.1-0.6c14.6-5.7,29-16.6,44.8-34c5.4-6.1,7.2-8.7,7.2-10.9c0-1.6-0.4-2.9-0.8-2.9c-0.5,0-4,3.8-8,8.4
	c-11.6,13.7-29.7,27.7-38,29.2c-2.8,0.6-3.8,0.2-6-2c-2.6-2.6-2.7-3-2.6-13.9c0.1-13.5,1.4-19.3,17.3-74.7c16.5-58,20.6-75,23.6-99
	c5.6-44.1-5.1-72.6-32-85.5c-20.2-9.7-47.9-12.1-68.9-6c-20.5,5.9-45.6,22.3-60.7,39.5c-2.9,3.3-5.5,5.8-5.6,5.6
	c-0.6-0.6,31.2-109.8,35.7-123.1c18.1-52.3,46-91.9,74.6-105.5c27.1-13,52.6-3.7,72.9,26.5c6.9,10.3,10.1,12.7,16.9,13.3
	c13.5,1,25.7-14.7,24.3-31.4c-1.1-13.7-10.6-22.6-29.5-27.5C1284.5,814.9,1261.8,813.6,1252.5,814.6z"/>
<path class="st0" d="M1898,814.6c-34.5,4.1-60.7,14.7-86.5,34.9c-11,8.6-29.5,27.9-38.5,40.2c-21.7,29.7-39.5,65.5-53.6,107.8
	c-5.4,16.3-74.9,258.7-77,268.7c-2.3,10.5-1.5,23.8,1.8,30.9c7.9,17.2,25.8,21.4,47.3,11.1c11.1-5.4,22.3-14.1,35.4-27.7
	c10.1-10.6,11.1-12,11.1-15.3l-0.1-3.7l-3.5,4c-15.6,17.4-26.8,27.2-37,32.5c-6.5,3.5-9.7,3.7-12.3,1.1c-4-4-4-16.3-0.1-35.1
	c2.2-10.6,85.3-299.1,91.5-317.5c13.4-40.3,32.4-73.7,53.2-93.6c9.4-8.9,14.8-12.8,24.6-17.4c18.6-8.9,36.9-6.5,54,7
	c5.2,4.1,10.7,10.6,21,24.5c4.6,6.2,9,9,14.4,9c12,0,22.2-12,23.1-27.2c0.4-6.9,0.2-8.4-2.2-13.2c-6.6-13.6-22.5-20.4-49.1-21.1
	C1907.8,814.3,1899.9,814.4,1898,814.6z"/>
<path class="st0" d="M893,898.6c-66.8,6-122.9,32.8-170.6,81.5c-44.5,45.5-72.8,100.6-83.1,161.6c-2.5,14.9-2.5,51.7-0.1,64.8
	c10,53.1,40.5,88.8,89,104.4c40.4,12.9,91.4,11.8,133.4-3c18.3-6.4,40.3-18.8,57.2-32.2c8.5-6.7,28.7-26.1,33.4-31.9
	c2.6-3.4,2.8-4,1.5-5.8c-1.3-1.9-1.8-1.5-10.6,8c-39.5,42.7-91.3,65.2-138.4,60.1c-43.7-4.8-75-26.6-94.7-66
	c-17.5-35.1-22.7-85.2-13.9-135.1c8.3-47.4,27.7-91.9,54.9-126c8.2-10.3,27-28.7,36.3-35.6c29-21.5,59.6-31.8,94.2-31.7
	c14.1,0,17,0.3,24.2,2.5c16.1,4.9,27.3,14.5,35.5,30.4c2.7,5.2,7.8,18.8,12.2,32.5c10.9,33.5,14.4,38.4,27.1,38.3
	c7.6,0,14.8-3.5,22-10.8c7.5-7.4,10.9-15.1,11.3-25.1c0.3-7,0-9.1-2.8-16.6c-12.2-33.8-37.3-55.2-73-62.4
	C930.7,899,901.9,897.8,893,898.6z"/>
<path class="st0" d="M3455,903.5c-19.5,5.5-35,26.5-35,47.4c0,20.7,18.5,30.1,39.4,20.2c21.6-10.3,35.1-42.4,24.9-58.9
	C3479.1,903.7,3467.1,900.2,3455,903.5z"/>
<path class="st0" d="M2139.4,908.1c-1.1,1.8,1,2.9,8.1,4.4c9.5,2,14.8,5.4,17.7,11.2c2,4.1,2.3,6.3,2.3,15.3
	c-0.1,6.4-0.8,13.4-1.8,18c-3.9,16.5-80,278.1-83.4,286.5c-12.5,31.4-30.1,52.5-51.1,61c-3.1,1.3-6.3,3.2-7,4.4l-1.4,2.1h51.6h51.6
	v-2.3c0-1.8-1.4-2.8-6.8-5.2c-13.2-5.9-22.8-17.8-26.3-32.5c-1.7-7.5-1.3-24.7,0.9-35c2-9.8,76.4-268,77.2-268
	c0.3,0,40,77.1,88.2,171.2l87.7,171.3l4,0.3c3.1,0.2,4-0.1,4.5-1.5c0.3-1,21-73.1,46.1-160.3c25.1-87.2,46.7-161.7,48-165.6
	c11.3-33.9,29.8-58.6,51.3-68.4c9.3-4.3,9.7-4.5,10-6.4c0.3-1.5-3.9-1.6-50.7-1.6H2409l0.1,2.2c0,1.9,1.6,3.1,7.9,6.1
	c23.6,11.3,31.9,35.9,23.6,69.9c-1.2,5.1-18.4,65.3-38.1,133.6c-27.2,94.1-36.2,124-37,122.9c-0.5-0.9-39.2-76.5-86-168.1l-85-166.6
	h-27.2C2148.8,907,2139.9,907.3,2139.4,908.1z"/>
<path class="st0" d="M3305.1,1010c-17.1,3.6-38.2,15.3-59.1,32.8c-11.4,9.5-29.7,28.4-38.2,39.3c-3.4,4.3-6.3,7.8-6.4,7.6
	c-0.2-0.2,3.1-11.5,7.3-25.3c7-22.7,7.7-25.7,7.7-33.7c0.1-8.8,0.1-8.9-3.2-11.8c-5.7-5.1-9.9-4.4-46.7,7.4
	c-28.5,9.1-32,10.5-32.3,12.5c-0.4,2.6-0.6,2.6,7.2,0.6c7.6-2,15.8-1.5,18.7,1.2c5.3,4.7,6.3,16.1,2.9,31.9
	c-1,4.9-13.6,49.4-27.9,98.8c-14.3,49.3-26.6,92.7-27.2,96.4c-1.5,8.7-0.6,21.4,2,28.3c2.5,6.6,7.9,12.5,14.1,15.4
	c7,3.3,19.2,2.8,29.1-1.1c13.8-5.4,28.5-16.8,43.8-33.7c7.6-8.4,9.7-12.5,7.2-14c-0.5-0.3-4.3,3.5-8.5,8.4c-12,14.1-30,28-38.3,29.6
	c-9.6,1.8-11.7-11.8-5.8-38.2c1.4-6.1,12-43.9,23.6-84c23.5-81.3,20.4-73.5,35.5-90.1c15.4-17,33.8-28.8,48.5-31.3
	c9.3-1.6,19.6-0.4,33,3.9c5.3,1.7,11.6,3.1,14.1,3.1c13.6,0,28.9-17.2,30.4-34.1c1.1-12.6-5.8-19.6-20.2-20.4
	C3312.6,1009.3,3307.5,1009.5,3305.1,1010z"/>
<path class="st0" d="M1471.6,1016.1c-21,2.9-41.8,11.1-61.1,24.3c-11.2,7.6-32.6,28.7-42.1,41.6c-28.3,38.2-46.7,86.6-50.6,132.7
	c-2.2,25.6,1.1,46.6,10.2,65.1c11.1,22.4,30,35.1,58.5,39.2c34.8,4.9,70.4-8.1,100.4-36.6l9.8-9.3l0.5,9.5c0.5,8.3,1,10.4,3.9,16.2
	c11.7,22.9,42.2,19.2,72.3-8.8c17.5-16.2,24.3-25.2,20.7-27.4c-0.5-0.3-3.7,2.9-7.2,7.1c-7,8.3-19.1,19.2-27.7,24.9
	c-16.3,10.9-22.1,7.7-20.8-11.6c0.3-5.2,1.5-13.4,2.5-18.1c1.6-7,69.2-243.3,70.8-247.6c0.8-2-3.2-1.6-4.9,0.4
	c-0.8,1-2.7,4.4-4.2,7.6c-3.2,6.7-11,14.7-19,19.6c-5.9,3.5-17.5,8.1-20.4,8.1c-1,0-3.1-2.5-5.2-6.2c-8.6-15-23.5-25-44.4-29.4
	C1504.9,1015.5,1480.9,1014.8,1471.6,1016.1z M1497.3,1026c25.5,7.9,40.7,36.1,42.4,78.5l0.5,14l-18.7,65l-18.8,65l-5.4,8.2
	c-15,22.5-34.3,39-53,45.2c-21.6,7.2-40.9,3.7-54.3-10c-15.9-16.1-24-49.9-21.1-87.7c3-39.3,12.4-74.5,28.6-107.7
	c18.9-38.8,43.4-63.9,69.3-71C1474.4,1023.4,1489.7,1023.7,1497.3,1026z"/>
<path class="st0" d="M2615.6,1016.1c-21,2.9-41.8,11.1-61.1,24.3c-11.2,7.6-32.6,28.7-42.1,41.6c-28.3,38.2-46.7,86.6-50.6,132.7
	c-2.2,25.6,1.1,46.6,10.2,65.1c11.1,22.4,30,35.1,58.5,39.2c34.7,4.9,69.9-7.8,100.2-36.5l10-9.4l0.5,9.5c0.5,8.3,1,10.4,3.9,16.2
	c11.7,22.9,42.2,19.2,72.3-8.8c17.5-16.2,24.3-25.2,20.7-27.4c-0.5-0.3-3.7,2.9-7.2,7.1c-7,8.3-19.1,19.2-27.7,24.9
	c-16.3,10.9-22.1,7.7-20.8-11.6c0.3-5.2,1.5-13.4,2.5-18.1c1.6-7,69.2-243.3,70.8-247.6c0.8-2-3.2-1.6-4.9,0.4
	c-0.8,1-2.7,4.4-4.2,7.6c-3.2,6.7-11,14.7-19,19.6c-5.9,3.5-17.5,8.1-20.4,8.1c-1,0-3.1-2.5-5.2-6.2c-8.6-15-23.5-25-44.4-29.4
	C2648.9,1015.5,2624.9,1014.8,2615.6,1016.1z M2641.3,1026c25.6,7.9,40.7,36,42.4,79l0.5,13.5l-18.7,65l-18.8,65l-5.4,8.2
	c-15,22.5-34.3,39-53,45.2c-21.6,7.2-40.9,3.7-54.3-10c-15.9-16.1-24-49.9-21.1-87.7c3-39.3,12.4-74.5,28.6-107.7
	c18.9-38.8,43.4-63.9,69.3-71C2618.4,1023.4,2633.7,1023.7,2641.3,1026z"/>
<path class="st0" d="M2936.6,1016.1c-21,2.9-41.8,11.1-61.1,24.3c-11.2,7.6-32.6,28.7-42.1,41.6c-28.3,38.2-46.7,86.6-50.6,132.7
	c-2.2,25.6,1.1,46.6,10.2,65.1c11.1,22.4,30,35.1,58.5,39.2c34.7,4.9,69.9-7.8,100.2-36.5l10-9.4l0.5,9.5c0.5,8.3,1,10.4,3.9,16.2
	c11.7,22.9,42.2,19.2,72.3-8.8c17.5-16.2,24.3-25.2,20.7-27.4c-0.5-0.3-3.7,2.9-7.2,7.1c-7,8.3-19.1,19.2-27.7,24.9
	c-16.3,10.9-22.1,7.7-20.8-11.6c0.3-5.2,1.5-13.4,2.5-18.1c1.6-7,69.2-243.3,70.8-247.6c0.8-2-3.2-1.6-4.9,0.4
	c-0.8,1-2.7,4.4-4.2,7.6c-3.2,6.7-11,14.7-19,19.6c-5.9,3.5-17.5,8.1-20.4,8.1c-1,0-3.1-2.5-5.2-6.2c-8.6-15-23.5-25-44.4-29.4
	C2969.9,1015.5,2945.9,1014.8,2936.6,1016.1z M2962.3,1026c25.6,7.9,40.7,36,42.4,79l0.5,13.5l-18.7,65l-18.8,65l-5.4,8.2
	c-15,22.5-34.3,39-53,45.2c-21.6,7.2-40.9,3.7-54.3-10c-15.9-16.1-24-49.9-21.1-87.7c3-39.3,12.4-74.5,28.6-107.7
	c18.9-38.8,43.4-63.9,69.3-71C2939.4,1023.4,2954.7,1023.7,2962.3,1026z"/>
<path class="st0" d="M3430.5,1015.9c-1.6,0.4-16.8,5.2-33.7,10.6c-29.1,9.4-30.8,10.1-30.8,12.3c0,1.7,0.4,2.2,1.4,1.9
	c4.3-1.7,10.5-2.9,15.2-3c12.7-0.3,17.1,10.9,13,32.5c-0.8,4-13.4,48.6-28,99.1s-27.1,94.7-27.7,98.4c-1.5,8.7-0.6,21.4,2,28.3
	c2.5,6.6,7.9,12.5,14.1,15.4c7,3.3,19.2,2.8,29.1-1.1c13.9-5.4,29.3-17.3,44.2-34c7.2-8.2,9.2-12.2,6.8-13.7
	c-0.5-0.3-4.3,3.5-8.5,8.4c-12,14.1-30,28-38.3,29.6c-9.6,1.8-11.7-11.8-5.8-38.1c2.7-11.9,36.3-129,54.4-189.1
	c9-30.1,11.1-38.3,11.1-43.3c0-6.6-1.7-10.8-5.1-13C3441.4,1015.6,3434.3,1014.9,3430.5,1015.9z"/>
<path class="st0" d="M703,1549.9v8.3l131.3-0.7c72.1-0.3,620.6-2.2,1218.7-4.1s1097-3.5,1108.5-3.7c11.6-0.1-19.3-0.3-68.5-0.5
	c-70.1-0.1-1964.3-6.3-2313.3-7.4l-76.7-0.3L703,1549.9L703,1549.9z"/>
<text transform="matrix(1.136 0 0 1 2504.77 1475.2217)" class="st1 st2">Ashes to Re-birth</text>
</svg>
